<mxfile host="app.diagrams.net" modified="2021-08-30T01:49:34.977Z" agent="5.0 (Windows NT 10.0; Win64; x64) AppleWebKit/537.36 (KHTML, like Gecko) Chrome/90.0.4430.72 Safari/537.36" etag="B1tOSvFpm91QVQ96MdwR" version="14.9.7" type="github">
  <diagram id="TjDm0sJkw5f4uAK2BcGN" name="第 1 页">
    <mxGraphModel dx="-356" dy="-424" grid="1" gridSize="10" guides="1" tooltips="1" connect="1" arrows="1" fold="1" page="1" pageScale="1" pageWidth="1169" pageHeight="827" math="0" shadow="0">
      <root>
        <mxCell id="0" />
        <mxCell id="1" parent="0" />
        <mxCell id="fTth4zM9X7GynvamdXY6-1" value="ASSIGN" style="rounded=1;whiteSpace=wrap;html=1;" vertex="1" parent="1">
          <mxGeometry x="1270" y="890" width="60" height="40" as="geometry" />
        </mxCell>
        <mxCell id="fTth4zM9X7GynvamdXY6-2" value="PARSEREF" style="rounded=1;whiteSpace=wrap;html=1;" vertex="1" parent="1">
          <mxGeometry x="1230" y="990" width="60" height="40" as="geometry" />
        </mxCell>
        <mxCell id="fTth4zM9X7GynvamdXY6-3" value="PARSEREF" style="rounded=1;whiteSpace=wrap;html=1;" vertex="1" parent="1">
          <mxGeometry x="1310" y="990" width="60" height="40" as="geometry" />
        </mxCell>
        <mxCell id="fTth4zM9X7GynvamdXY6-4" value="op1p" style="edgeStyle=orthogonalEdgeStyle;rounded=0;orthogonalLoop=1;jettySize=auto;html=1;exitX=0.25;exitY=1;exitDx=0;exitDy=0;curved=1;entryX=0.5;entryY=0;entryDx=0;entryDy=0;" edge="1" parent="1" source="fTth4zM9X7GynvamdXY6-1" target="fTth4zM9X7GynvamdXY6-2">
          <mxGeometry relative="1" as="geometry">
            <mxPoint x="1115" y="940" as="sourcePoint" />
            <mxPoint x="1110" y="1000" as="targetPoint" />
          </mxGeometry>
        </mxCell>
        <mxCell id="fTth4zM9X7GynvamdXY6-5" value="op2p" style="edgeStyle=orthogonalEdgeStyle;rounded=0;orthogonalLoop=1;jettySize=auto;html=1;exitX=0.75;exitY=1;exitDx=0;exitDy=0;curved=1;entryX=0.5;entryY=0;entryDx=0;entryDy=0;" edge="1" parent="1" source="fTth4zM9X7GynvamdXY6-1" target="fTth4zM9X7GynvamdXY6-3">
          <mxGeometry relative="1" as="geometry">
            <mxPoint x="1145" y="940" as="sourcePoint" />
            <mxPoint x="1190" y="1000" as="targetPoint" />
          </mxGeometry>
        </mxCell>
        <mxCell id="fTth4zM9X7GynvamdXY6-6" value="语法分析后" style="text;html=1;strokeColor=none;fillColor=none;align=center;verticalAlign=middle;whiteSpace=wrap;rounded=0;" vertex="1" parent="1">
          <mxGeometry x="1250" y="850" width="100" height="20" as="geometry" />
        </mxCell>
        <mxCell id="fTth4zM9X7GynvamdXY6-7" value="ASSIGN" style="rounded=1;whiteSpace=wrap;html=1;" vertex="1" parent="1">
          <mxGeometry x="1654" y="890" width="60" height="40" as="geometry" />
        </mxCell>
        <mxCell id="fTth4zM9X7GynvamdXY6-8" value="?" style="rounded=1;whiteSpace=wrap;html=1;" vertex="1" parent="1">
          <mxGeometry x="1614" y="990" width="60" height="40" as="geometry" />
        </mxCell>
        <mxCell id="fTth4zM9X7GynvamdXY6-9" value="VARREF&lt;br&gt;[LV]" style="rounded=1;whiteSpace=wrap;html=1;" vertex="1" parent="1">
          <mxGeometry x="1694" y="990" width="60" height="40" as="geometry" />
        </mxCell>
        <mxCell id="fTth4zM9X7GynvamdXY6-10" value="op1p" style="edgeStyle=orthogonalEdgeStyle;rounded=0;orthogonalLoop=1;jettySize=auto;html=1;exitX=0.25;exitY=1;exitDx=0;exitDy=0;curved=1;entryX=0.5;entryY=0;entryDx=0;entryDy=0;" edge="1" parent="1" source="fTth4zM9X7GynvamdXY6-7" target="fTth4zM9X7GynvamdXY6-8">
          <mxGeometry relative="1" as="geometry">
            <mxPoint x="1499" y="940" as="sourcePoint" />
            <mxPoint x="1494" y="1000" as="targetPoint" />
          </mxGeometry>
        </mxCell>
        <mxCell id="fTth4zM9X7GynvamdXY6-11" value="op2p" style="edgeStyle=orthogonalEdgeStyle;rounded=0;orthogonalLoop=1;jettySize=auto;html=1;exitX=0.75;exitY=1;exitDx=0;exitDy=0;curved=1;entryX=0.5;entryY=0;entryDx=0;entryDy=0;" edge="1" parent="1" source="fTth4zM9X7GynvamdXY6-7" target="fTth4zM9X7GynvamdXY6-9">
          <mxGeometry relative="1" as="geometry">
            <mxPoint x="1529" y="940" as="sourcePoint" />
            <mxPoint x="1574" y="1000" as="targetPoint" />
          </mxGeometry>
        </mxCell>
        <mxCell id="fTth4zM9X7GynvamdXY6-12" value="final" style="text;html=1;strokeColor=none;fillColor=none;align=center;verticalAlign=middle;whiteSpace=wrap;rounded=0;" vertex="1" parent="1">
          <mxGeometry x="1634" y="850" width="100" height="20" as="geometry" />
        </mxCell>
        <mxCell id="fTth4zM9X7GynvamdXY6-13" value="ASSIGNW" style="rounded=1;whiteSpace=wrap;html=1;" vertex="1" parent="1">
          <mxGeometry x="1654" y="1070" width="60" height="40" as="geometry" />
        </mxCell>
        <mxCell id="fTth4zM9X7GynvamdXY6-14" value="VARREF&lt;br&gt;[RV]" style="rounded=1;whiteSpace=wrap;html=1;" vertex="1" parent="1">
          <mxGeometry x="1614" y="1170" width="60" height="40" as="geometry" />
        </mxCell>
        <mxCell id="fTth4zM9X7GynvamdXY6-15" value="VARREF&lt;br&gt;[LV]" style="rounded=1;whiteSpace=wrap;html=1;" vertex="1" parent="1">
          <mxGeometry x="1694" y="1170" width="60" height="40" as="geometry" />
        </mxCell>
        <mxCell id="fTth4zM9X7GynvamdXY6-16" value="op1p" style="edgeStyle=orthogonalEdgeStyle;rounded=0;orthogonalLoop=1;jettySize=auto;html=1;exitX=0.25;exitY=1;exitDx=0;exitDy=0;curved=1;entryX=0.5;entryY=0;entryDx=0;entryDy=0;" edge="1" parent="1" source="fTth4zM9X7GynvamdXY6-13" target="fTth4zM9X7GynvamdXY6-14">
          <mxGeometry relative="1" as="geometry">
            <mxPoint x="1499" y="1120" as="sourcePoint" />
            <mxPoint x="1494" y="1180" as="targetPoint" />
          </mxGeometry>
        </mxCell>
        <mxCell id="fTth4zM9X7GynvamdXY6-17" value="op2p" style="edgeStyle=orthogonalEdgeStyle;rounded=0;orthogonalLoop=1;jettySize=auto;html=1;exitX=0.75;exitY=1;exitDx=0;exitDy=0;curved=1;entryX=0.5;entryY=0;entryDx=0;entryDy=0;" edge="1" parent="1" source="fTth4zM9X7GynvamdXY6-13" target="fTth4zM9X7GynvamdXY6-15">
          <mxGeometry relative="1" as="geometry">
            <mxPoint x="1529" y="1120" as="sourcePoint" />
            <mxPoint x="1574" y="1180" as="targetPoint" />
          </mxGeometry>
        </mxCell>
        <mxCell id="fTth4zM9X7GynvamdXY6-18" value="ASSIGNDLY" style="rounded=1;whiteSpace=wrap;html=1;" vertex="1" parent="1">
          <mxGeometry x="1860" y="1070" width="60" height="40" as="geometry" />
        </mxCell>
        <mxCell id="fTth4zM9X7GynvamdXY6-19" value="VARREF&lt;br&gt;[RV]" style="rounded=1;whiteSpace=wrap;html=1;" vertex="1" parent="1">
          <mxGeometry x="1820" y="1170" width="60" height="40" as="geometry" />
        </mxCell>
        <mxCell id="fTth4zM9X7GynvamdXY6-20" value="VARREF&lt;br&gt;[LV]" style="rounded=1;whiteSpace=wrap;html=1;" vertex="1" parent="1">
          <mxGeometry x="1900" y="1170" width="60" height="40" as="geometry" />
        </mxCell>
        <mxCell id="fTth4zM9X7GynvamdXY6-21" value="op1p" style="edgeStyle=orthogonalEdgeStyle;rounded=0;orthogonalLoop=1;jettySize=auto;html=1;exitX=0.25;exitY=1;exitDx=0;exitDy=0;curved=1;entryX=0.5;entryY=0;entryDx=0;entryDy=0;" edge="1" parent="1" source="fTth4zM9X7GynvamdXY6-18" target="fTth4zM9X7GynvamdXY6-19">
          <mxGeometry relative="1" as="geometry">
            <mxPoint x="1705" y="1120" as="sourcePoint" />
            <mxPoint x="1700" y="1180" as="targetPoint" />
          </mxGeometry>
        </mxCell>
        <mxCell id="fTth4zM9X7GynvamdXY6-22" value="op2p" style="edgeStyle=orthogonalEdgeStyle;rounded=0;orthogonalLoop=1;jettySize=auto;html=1;exitX=0.75;exitY=1;exitDx=0;exitDy=0;curved=1;entryX=0.5;entryY=0;entryDx=0;entryDy=0;" edge="1" parent="1" source="fTth4zM9X7GynvamdXY6-18" target="fTth4zM9X7GynvamdXY6-20">
          <mxGeometry relative="1" as="geometry">
            <mxPoint x="1735" y="1120" as="sourcePoint" />
            <mxPoint x="1780" y="1180" as="targetPoint" />
          </mxGeometry>
        </mxCell>
        <mxCell id="fTth4zM9X7GynvamdXY6-23" value="ASSIGNPRE" style="rounded=1;whiteSpace=wrap;html=1;" vertex="1" parent="1">
          <mxGeometry x="2080" y="1070" width="60" height="40" as="geometry" />
        </mxCell>
        <mxCell id="fTth4zM9X7GynvamdXY6-24" value="VARREF&lt;br&gt;[RV]" style="rounded=1;whiteSpace=wrap;html=1;" vertex="1" parent="1">
          <mxGeometry x="2040" y="1170" width="60" height="40" as="geometry" />
        </mxCell>
        <mxCell id="fTth4zM9X7GynvamdXY6-25" value="VARREF&lt;br&gt;[LV]" style="rounded=1;whiteSpace=wrap;html=1;" vertex="1" parent="1">
          <mxGeometry x="2120" y="1170" width="60" height="40" as="geometry" />
        </mxCell>
        <mxCell id="fTth4zM9X7GynvamdXY6-26" value="op1p" style="edgeStyle=orthogonalEdgeStyle;rounded=0;orthogonalLoop=1;jettySize=auto;html=1;exitX=0.25;exitY=1;exitDx=0;exitDy=0;curved=1;entryX=0.5;entryY=0;entryDx=0;entryDy=0;" edge="1" parent="1" source="fTth4zM9X7GynvamdXY6-23" target="fTth4zM9X7GynvamdXY6-24">
          <mxGeometry relative="1" as="geometry">
            <mxPoint x="1925" y="1120" as="sourcePoint" />
            <mxPoint x="1920" y="1180" as="targetPoint" />
          </mxGeometry>
        </mxCell>
        <mxCell id="fTth4zM9X7GynvamdXY6-27" value="op2p" style="edgeStyle=orthogonalEdgeStyle;rounded=0;orthogonalLoop=1;jettySize=auto;html=1;exitX=0.75;exitY=1;exitDx=0;exitDy=0;curved=1;entryX=0.5;entryY=0;entryDx=0;entryDy=0;" edge="1" parent="1" source="fTth4zM9X7GynvamdXY6-23" target="fTth4zM9X7GynvamdXY6-25">
          <mxGeometry relative="1" as="geometry">
            <mxPoint x="1955" y="1120" as="sourcePoint" />
            <mxPoint x="2000" y="1180" as="targetPoint" />
          </mxGeometry>
        </mxCell>
        <mxCell id="fTth4zM9X7GynvamdXY6-28" value="ASSIGNPOST" style="rounded=1;whiteSpace=wrap;html=1;" vertex="1" parent="1">
          <mxGeometry x="2080" y="1250" width="60" height="40" as="geometry" />
        </mxCell>
        <mxCell id="fTth4zM9X7GynvamdXY6-29" value="VARREF&lt;br&gt;[RV]" style="rounded=1;whiteSpace=wrap;html=1;" vertex="1" parent="1">
          <mxGeometry x="2040" y="1350" width="60" height="40" as="geometry" />
        </mxCell>
        <mxCell id="fTth4zM9X7GynvamdXY6-30" value="VARREF&lt;br&gt;[LV]" style="rounded=1;whiteSpace=wrap;html=1;" vertex="1" parent="1">
          <mxGeometry x="2120" y="1350" width="60" height="40" as="geometry" />
        </mxCell>
        <mxCell id="fTth4zM9X7GynvamdXY6-31" value="op1p" style="edgeStyle=orthogonalEdgeStyle;rounded=0;orthogonalLoop=1;jettySize=auto;html=1;exitX=0.25;exitY=1;exitDx=0;exitDy=0;curved=1;entryX=0.5;entryY=0;entryDx=0;entryDy=0;" edge="1" parent="1" source="fTth4zM9X7GynvamdXY6-28" target="fTth4zM9X7GynvamdXY6-29">
          <mxGeometry relative="1" as="geometry">
            <mxPoint x="1925" y="1300" as="sourcePoint" />
            <mxPoint x="1920" y="1360" as="targetPoint" />
          </mxGeometry>
        </mxCell>
        <mxCell id="fTth4zM9X7GynvamdXY6-32" value="op2p" style="edgeStyle=orthogonalEdgeStyle;rounded=0;orthogonalLoop=1;jettySize=auto;html=1;exitX=0.75;exitY=1;exitDx=0;exitDy=0;curved=1;entryX=0.5;entryY=0;entryDx=0;entryDy=0;" edge="1" parent="1" source="fTth4zM9X7GynvamdXY6-28" target="fTth4zM9X7GynvamdXY6-30">
          <mxGeometry relative="1" as="geometry">
            <mxPoint x="1955" y="1300" as="sourcePoint" />
            <mxPoint x="2000" y="1360" as="targetPoint" />
          </mxGeometry>
        </mxCell>
        <mxCell id="fTth4zM9X7GynvamdXY6-33" value="ASSIGN&lt;br&gt;数组" style="rounded=1;whiteSpace=wrap;html=1;" vertex="1" parent="1">
          <mxGeometry x="1654" y="1250" width="60" height="40" as="geometry" />
        </mxCell>
        <mxCell id="fTth4zM9X7GynvamdXY6-40" value="op1p" style="edgeStyle=orthogonalEdgeStyle;rounded=0;orthogonalLoop=1;jettySize=auto;html=1;exitX=0.25;exitY=1;exitDx=0;exitDy=0;curved=1;" edge="1" parent="1" source="fTth4zM9X7GynvamdXY6-34" target="fTth4zM9X7GynvamdXY6-38">
          <mxGeometry relative="1" as="geometry" />
        </mxCell>
        <mxCell id="fTth4zM9X7GynvamdXY6-34" value="WORDSEL" style="rounded=1;whiteSpace=wrap;html=1;" vertex="1" parent="1">
          <mxGeometry x="1574" y="1350" width="60" height="40" as="geometry" />
        </mxCell>
        <mxCell id="fTth4zM9X7GynvamdXY6-44" value="op1p" style="edgeStyle=orthogonalEdgeStyle;curved=1;rounded=0;orthogonalLoop=1;jettySize=auto;html=1;exitX=0.25;exitY=1;exitDx=0;exitDy=0;entryX=0.5;entryY=0;entryDx=0;entryDy=0;" edge="1" parent="1" source="fTth4zM9X7GynvamdXY6-35" target="fTth4zM9X7GynvamdXY6-42">
          <mxGeometry relative="1" as="geometry" />
        </mxCell>
        <mxCell id="fTth4zM9X7GynvamdXY6-45" value="op2p" style="edgeStyle=orthogonalEdgeStyle;curved=1;rounded=0;orthogonalLoop=1;jettySize=auto;html=1;exitX=0.75;exitY=1;exitDx=0;exitDy=0;" edge="1" parent="1" source="fTth4zM9X7GynvamdXY6-35" target="fTth4zM9X7GynvamdXY6-43">
          <mxGeometry relative="1" as="geometry" />
        </mxCell>
        <mxCell id="fTth4zM9X7GynvamdXY6-35" value="WORDSEL" style="rounded=1;whiteSpace=wrap;html=1;" vertex="1" parent="1">
          <mxGeometry x="1734" y="1350" width="60" height="40" as="geometry" />
        </mxCell>
        <mxCell id="fTth4zM9X7GynvamdXY6-36" value="op1p" style="edgeStyle=orthogonalEdgeStyle;rounded=0;orthogonalLoop=1;jettySize=auto;html=1;exitX=0.25;exitY=1;exitDx=0;exitDy=0;curved=1;entryX=0.5;entryY=0;entryDx=0;entryDy=0;" edge="1" parent="1" source="fTth4zM9X7GynvamdXY6-33" target="fTth4zM9X7GynvamdXY6-34">
          <mxGeometry relative="1" as="geometry">
            <mxPoint x="1499" y="1300" as="sourcePoint" />
            <mxPoint x="1494" y="1360" as="targetPoint" />
          </mxGeometry>
        </mxCell>
        <mxCell id="fTth4zM9X7GynvamdXY6-37" value="op2p" style="edgeStyle=orthogonalEdgeStyle;rounded=0;orthogonalLoop=1;jettySize=auto;html=1;exitX=0.75;exitY=1;exitDx=0;exitDy=0;curved=1;entryX=0.5;entryY=0;entryDx=0;entryDy=0;" edge="1" parent="1" source="fTth4zM9X7GynvamdXY6-33" target="fTth4zM9X7GynvamdXY6-35">
          <mxGeometry relative="1" as="geometry">
            <mxPoint x="1529" y="1300" as="sourcePoint" />
            <mxPoint x="1574" y="1360" as="targetPoint" />
          </mxGeometry>
        </mxCell>
        <mxCell id="fTth4zM9X7GynvamdXY6-38" value="VARREF&lt;br&gt;[RV]" style="rounded=1;whiteSpace=wrap;html=1;" vertex="1" parent="1">
          <mxGeometry x="1534" y="1430" width="60" height="40" as="geometry" />
        </mxCell>
        <mxCell id="fTth4zM9X7GynvamdXY6-39" value="CONST&lt;br&gt;下标" style="rounded=1;whiteSpace=wrap;html=1;" vertex="1" parent="1">
          <mxGeometry x="1614" y="1430" width="60" height="40" as="geometry" />
        </mxCell>
        <mxCell id="fTth4zM9X7GynvamdXY6-41" value="op2p" style="edgeStyle=orthogonalEdgeStyle;rounded=0;orthogonalLoop=1;jettySize=auto;html=1;exitX=0.75;exitY=1;exitDx=0;exitDy=0;curved=1;entryX=0.5;entryY=0;entryDx=0;entryDy=0;" edge="1" parent="1" source="fTth4zM9X7GynvamdXY6-34" target="fTth4zM9X7GynvamdXY6-39">
          <mxGeometry relative="1" as="geometry">
            <mxPoint x="1613" y="1400" as="sourcePoint" />
            <mxPoint x="1574" y="1440" as="targetPoint" />
          </mxGeometry>
        </mxCell>
        <mxCell id="fTth4zM9X7GynvamdXY6-42" value="VARREF&lt;br&gt;[LV]" style="rounded=1;whiteSpace=wrap;html=1;" vertex="1" parent="1">
          <mxGeometry x="1697.5" y="1430" width="60" height="40" as="geometry" />
        </mxCell>
        <mxCell id="fTth4zM9X7GynvamdXY6-43" value="CONST&lt;br&gt;下标" style="rounded=1;whiteSpace=wrap;html=1;" vertex="1" parent="1">
          <mxGeometry x="1774" y="1430" width="60" height="40" as="geometry" />
        </mxCell>
      </root>
    </mxGraphModel>
  </diagram>
</mxfile>
